<svg xmlns="http://www.w3.org/2000/svg" viewBox="0 0 600 400" width="600" height="400" font-family="sans-serif" font-size="12">
  <style>
    .title { font-size: 16px; font-weight: bold; fill: #1e293b; }
    .axis { stroke: #94a3b8; stroke-width: 1; }
    .grid { stroke: #e2e8f0; stroke-dasharray: 4,4; }
    .label { fill: #475569; font-size: 11px; }
    .bar { fill: #3b82f6; rx: 4; }
    .point { fill: #2563eb; }
    .error-bar { stroke: #1e40af; stroke-width: 2; }
  </style>
  <rect width="100%" height="100%" fill="#ffffff" />
<text x="20" y="30" class="title">Forest Plot: Capability Means &amp; 95% CI</text>
<line x1="150" y1="60" x2="550" y2="60" class="axis" />
<line x1="150" y1="350" x2="550" y2="350" class="axis" />
<line x1="150" y1="60" x2="150" y2="350" class="axis" />
<text x="140" y="94.0" text-anchor="end" class="label">docling_default</text>
<line x1="478.0" y1="90.0" x2="502.0" y2="90.0" class="error-bar" />
<line x1="478.0" y1="86.0" x2="478.0" y2="94.0" class="error-bar" />
<line x1="502.0" y1="86.0" x2="502.0" y2="94.0" class="error-bar" />
<circle cx="490.0" cy="90.0" r="4" class="point" />
<text x="140" y="129.0" text-anchor="end" class="label">docling_scan</text>
<line x1="466.0" y1="125.0" x2="490.0" y2="125.0" class="error-bar" />
<line x1="466.0" y1="121.0" x2="466.0" y2="129.0" class="error-bar" />
<line x1="490.0" y1="121.0" x2="490.0" y2="129.0" class="error-bar" />
<circle cx="478.0" cy="125.0" r="4" class="point" />
<text x="140" y="164.0" text-anchor="end" class="label">opendataloader_default</text>
<line x1="490.0" y1="160.0" x2="514.0" y2="160.0" class="error-bar" />
<line x1="490.0" y1="156.0" x2="490.0" y2="164.0" class="error-bar" />
<line x1="514.0" y1="156.0" x2="514.0" y2="164.0" class="error-bar" />
<circle cx="502.0" cy="160.0" r="4" class="point" />
<text x="140" y="199.0" text-anchor="end" class="label">opendataloader_scan</text>
<line x1="474.0" y1="195.0" x2="498.0" y2="195.0" class="error-bar" />
<line x1="474.0" y1="191.0" x2="474.0" y2="199.0" class="error-bar" />
<line x1="498.0" y1="191.0" x2="498.0" y2="199.0" class="error-bar" />
<circle cx="486.0" cy="195.0" r="4" class="point" />
<text x="140" y="234.0" text-anchor="end" class="label">marker_default</text>
<line x1="494.0" y1="230.0" x2="518.0" y2="230.0" class="error-bar" />
<line x1="494.0" y1="226.0" x2="494.0" y2="234.0" class="error-bar" />
<line x1="518.0" y1="226.0" x2="518.0" y2="234.0" class="error-bar" />
<circle cx="506.0" cy="230.0" r="4" class="point" />
<text x="140" y="269.0" text-anchor="end" class="label">marker_scan</text>
<line x1="482.0" y1="265.0" x2="506.0" y2="265.0" class="error-bar" />
<line x1="482.0" y1="261.0" x2="482.0" y2="269.0" class="error-bar" />
<line x1="506.0" y1="261.0" x2="506.0" y2="269.0" class="error-bar" />
<circle cx="494.0" cy="265.0" r="4" class="point" />
<text x="140" y="304.0" text-anchor="end" class="label">sovereign_default</text>
<line x1="470.0" y1="300.0" x2="494.0" y2="300.0" class="error-bar" />
<line x1="470.0" y1="296.0" x2="470.0" y2="304.0" class="error-bar" />
<line x1="494.0" y1="296.0" x2="494.0" y2="304.0" class="error-bar" />
<circle cx="482.0" cy="300.0" r="4" class="point" />
<text x="140" y="339.0" text-anchor="end" class="label">sovereign_scan</text>
<line x1="462.0" y1="335.0" x2="486.0" y2="335.0" class="error-bar" />
<line x1="462.0" y1="331.0" x2="462.0" y2="339.0" class="error-bar" />
<line x1="486.0" y1="331.0" x2="486.0" y2="339.0" class="error-bar" />
<circle cx="474.0" cy="335.0" r="4" class="point" />
</svg>